<svg xmlns="http://www.w3.org/2000/svg" width="816" height="144">
    <style>
@import url('https://cdn.jsdelivr.net/npm/hack-font@3.3.0/build/web/hack-subset.css');
* { font-family: Hack; font-size: 13px; }

        line, path, circle, rect, polygon{stroke:black;stroke-width:2;stroke-opacity:1;fill-opacity:1;stroke-linecap:round;stroke-linejoin:miter;}text{font-family:monospace;font-size:14px;}rect.backdrop{stroke:none;fill:white;}.broken{stroke-dasharray:8;}.filled{fill:black;}.bg_filled{fill:white;}.nofill{fill:white;}.end_marked_arrow{marker-end:url(#arrow);}.start_marked_arrow{marker-start:url(#arrow);}.end_marked_diamond{marker-end:url(#diamond);}.start_marked_diamond{marker-start:url(#diamond);}.end_marked_circle{marker-end:url(#circle);}.start_marked_circle{marker-start:url(#circle);}.end_marked_open_circle{marker-end:url(#open_circle);}.start_marked_open_circle{marker-start:url(#open_circle);}.end_marked_big_open_circle{marker-end:url(#big_open_circle);}.start_marked_big_open_circle{marker-start:url(#big_open_circle);}
        <!--separator-->
        
    </style>
    <defs>
        <marker id="arrow" viewBox="-2 -2 8 8" refX="4" refY="2" markerWidth="7" markerHeight="7" orient="auto-start-reverse">
            <polygon points="0,0 0,4 4,2 0,0"></polygon>
        </marker>
        <marker id="diamond" viewBox="-2 -2 8 8" refX="4" refY="2" markerWidth="7" markerHeight="7" orient="auto-start-reverse">
            <polygon points="0,2 2,0 4,2 2,4 0,2"></polygon>
        </marker>
        <marker id="circle" viewBox="0 0 8 8" refX="4" refY="4" markerWidth="7" markerHeight="7" orient="auto-start-reverse">
            <circle cx="4" cy="4" r="2" class="filled"></circle>
        </marker>
        <marker id="open_circle" viewBox="0 0 8 8" refX="4" refY="4" markerWidth="7" markerHeight="7" orient="auto-start-reverse">
            <circle cx="4" cy="4" r="2" class="bg_filled"></circle>
        </marker>
        <marker id="big_open_circle" viewBox="0 0 8 8" refX="4" refY="4" markerWidth="7" markerHeight="7" orient="auto-start-reverse">
            <circle cx="4" cy="4" r="3" class="bg_filled"></circle>
        </marker>
    </defs>
    <rect class="backdrop" x="0" y="0" width="816" height="144"></rect>
    <text x="26" y="44" >:</text>
    <text x="210" y="44" >connectionAcquisition</text>
    <text x="26" y="76" >:</text>
    <text x="106" y="76" >dnsResolution</text>
    <line x1="284" y1="64" x2="284" y2="96" class="solid"></line>
    <text x="282" y="108" >:</text>
    <text x="362" y="108" >socketConnect</text>
    <text x="794" y="28" >#1</text>
    <g>
        <line x1="28" y1="24" x2="540" y2="24" class="solid"></line>
        <line x1="28" y1="24" x2="28" y2="32" class="solid"></line>
        <line x1="540" y1="24" x2="540" y2="56" class="solid"></line>
        <line x1="28" y1="48" x2="28" y2="64" class="solid"></line>
        <line x1="28" y1="56" x2="540" y2="56" class="solid"></line>
    </g>
    <g>
        <polygon points="40,36 32,40 40,44" class="filled"></polygon>
        <line x1="40" y1="40" x2="208" y2="40" class="solid"></line>
    </g>
    <g>
        <line x1="376" y1="40" x2="528" y2="40" class="solid"></line>
        <polygon points="528,36 536,40 528,44" class="filled"></polygon>
    </g>
    <g>
        <polygon points="40,68 32,72 40,76" class="filled"></polygon>
        <line x1="40" y1="72" x2="104" y2="72" class="solid"></line>
    </g>
    <g>
        <line x1="208" y1="72" x2="272" y2="72" class="solid"></line>
        <polygon points="272,68 280,72 272,76" class="filled"></polygon>
    </g>
    <g>
        <line x1="28" y1="80" x2="28" y2="88" class="solid"></line>
        <line x1="28" y1="88" x2="540" y2="88" class="solid"></line>
        <line x1="540" y1="88" x2="540" y2="120" class="solid"></line>
        <line x1="284" y1="112" x2="284" y2="120" class="solid"></line>
        <line x1="284" y1="120" x2="540" y2="120" class="solid"></line>
    </g>
    <g>
        <polygon points="296,100 288,104 296,108" class="filled"></polygon>
        <line x1="296" y1="104" x2="360" y2="104" class="solid"></line>
    </g>
    <g>
        <line x1="464" y1="104" x2="528" y2="104" class="solid"></line>
        <polygon points="528,100 536,104 528,108" class="filled"></polygon>
    </g>
</svg>
