<svg xmlns="http://www.w3.org/2000/svg" width="520" height="544">
    <style>
@import url('https://cdn.jsdelivr.net/npm/hack-font@3.3.0/build/web/hack-subset.css');
* { font-family: Hack; font-size: 13px; }

        line, path, circle, rect, polygon{stroke:black;stroke-width:2;stroke-opacity:1;fill-opacity:1;stroke-linecap:round;stroke-linejoin:miter;}text{font-family:monospace;font-size:14px;}rect.backdrop{stroke:none;fill:white;}.broken{stroke-dasharray:8;}.filled{fill:black;}.bg_filled{fill:white;}.nofill{fill:white;}.end_marked_arrow{marker-end:url(#arrow);}.start_marked_arrow{marker-start:url(#arrow);}.end_marked_diamond{marker-end:url(#diamond);}.start_marked_diamond{marker-start:url(#diamond);}.end_marked_circle{marker-end:url(#circle);}.start_marked_circle{marker-start:url(#circle);}.end_marked_open_circle{marker-end:url(#open_circle);}.start_marked_open_circle{marker-start:url(#open_circle);}.end_marked_big_open_circle{marker-end:url(#big_open_circle);}.start_marked_big_open_circle{marker-start:url(#big_open_circle);}
        <!--separator-->
        
    </style>
    <defs>
        <marker id="arrow" viewBox="-2 -2 8 8" refX="4" refY="2" markerWidth="7" markerHeight="7" orient="auto-start-reverse">
            <polygon points="0,0 0,4 4,2 0,0"></polygon>
        </marker>
        <marker id="diamond" viewBox="-2 -2 8 8" refX="4" refY="2" markerWidth="7" markerHeight="7" orient="auto-start-reverse">
            <polygon points="0,2 2,0 4,2 2,4 0,2"></polygon>
        </marker>
        <marker id="circle" viewBox="0 0 8 8" refX="4" refY="4" markerWidth="7" markerHeight="7" orient="auto-start-reverse">
            <circle cx="4" cy="4" r="2" class="filled"></circle>
        </marker>
        <marker id="open_circle" viewBox="0 0 8 8" refX="4" refY="4" markerWidth="7" markerHeight="7" orient="auto-start-reverse">
            <circle cx="4" cy="4" r="2" class="bg_filled"></circle>
        </marker>
        <marker id="big_open_circle" viewBox="0 0 8 8" refX="4" refY="4" markerWidth="7" markerHeight="7" orient="auto-start-reverse">
            <circle cx="4" cy="4" r="3" class="bg_filled"></circle>
        </marker>
    </defs>
    <rect class="backdrop" x="0" y="0" width="520" height="544"></rect>
    <rect x="28" y="104" width="184" height="160" class="solid nofill" rx="0"></rect>
    <text x="58" y="156" >Request</text>
    <text x="122" y="156" >side</text>
    <text x="162" y="156" >log</text>
    <text x="74" y="204" >Copied</text>
    <text x="130" y="204" >from</text>
    <text x="74" y="220" >the</text>
    <text x="106" y="220" >first</text>
    <text x="154" y="220" >child</text>
    <rect x="28" y="296" width="184" height="160" class="solid nofill" rx="0"></rect>
    <text x="50" y="348" >Response</text>
    <text x="122" y="348" >side</text>
    <text x="162" y="348" >log</text>
    <text x="74" y="396" >Copied</text>
    <text x="130" y="396" >from</text>
    <text x="74" y="412" >the</text>
    <text x="106" y="412" >last</text>
    <text x="146" y="412" >child</text>
    <text x="26" y="44" >RequestLog</text>
    <text x="282" y="172" >Child</text>
    <text x="330" y="172" >#1</text>
    <text x="298" y="204" >Request</text>
    <text x="362" y="204" >side</text>
    <text x="402" y="204" >log</text>
    <line x1="244" y1="208" x2="244" y2="416" class="broken"></line>
    <text x="282" y="236" >:</text>
    <text x="298" y="236" >Response</text>
    <text x="370" y="236" >side</text>
    <text x="410" y="236" >log</text>
    <text x="282" y="284" >...</text>
    <text x="362" y="316" >.</text>
    <text x="362" y="332" >.</text>
    <text x="282" y="364" >Child</text>
    <text x="330" y="364" >#N</text>
    <text x="282" y="396" >:</text>
    <text x="298" y="396" >Request</text>
    <text x="362" y="396" >side</text>
    <text x="402" y="396" >log</text>
    <text x="298" y="428" >Response</text>
    <text x="370" y="428" >side</text>
    <text x="410" y="428" >log</text>
    <line x1="244" y1="432" x2="244" y2="480" class="broken"></line>
    <text x="298" y="108" >Child</text>
    <text x="346" y="108" >RequestLogs</text>
    <text x="314" y="124" >e.g.</text>
    <text x="354" y="124" >retries</text>
    <g>
        <line x1="8" y1="0" x2="4" y2="8" class="solid"></line>
        <line x1="4" y1="8" x2="508" y2="8" class="solid"></line>
        <line x1="4" y1="8" x2="4" y2="512" class="solid"></line>
        <line x1="504" y1="0" x2="508" y2="8" class="solid"></line>
        <line x1="508" y1="8" x2="508" y2="512" class="solid"></line>
    </g>
    <g>
        <line x1="0" y1="512" x2="8" y2="528" class="solid"></line>
        <line x1="4" y1="520" x2="508" y2="520" class="solid"></line>
        <line x1="512" y1="512" x2="504" y2="528" class="solid"></line>
    </g>
    <g>
        <line x1="248" y1="64" x2="244" y2="72" class="solid"></line>
        <line x1="244" y1="72" x2="484" y2="72" class="solid"></line>
        <line x1="244" y1="72" x2="244" y2="192" class="broken"></line>
        <line x1="480" y1="64" x2="484" y2="72" class="solid"></line>
        <line x1="484" y1="72" x2="484" y2="480" class="solid"></line>
    </g>
    <g>
        <line x1="268" y1="152" x2="460" y2="152" class="solid"></line>
        <line x1="268" y1="152" x2="268" y2="192" class="solid"></line>
        <line x1="460" y1="152" x2="460" y2="296" class="solid"></line>
        <line x1="268" y1="208" x2="268" y2="296" class="solid"></line>
        <line x1="268" y1="264" x2="460" y2="264" class="solid"></line>
        <line x1="268" y1="296" x2="460" y2="296" class="solid"></line>
    </g>
    <g>
        <line x1="284" y1="184" x2="444" y2="184" class="solid"></line>
        <line x1="284" y1="184" x2="284" y2="224" class="solid"></line>
        <line x1="444" y1="184" x2="444" y2="248" class="solid"></line>
        <line x1="284" y1="216" x2="444" y2="216" class="solid"></line>
        <polygon points="224,196 216,200 224,204" class="filled"></polygon>
        <line x1="224" y1="200" x2="284" y2="200" class="solid"></line>
        <line x1="284" y1="240" x2="284" y2="248" class="solid"></line>
        <line x1="284" y1="248" x2="444" y2="248" class="solid"></line>
    </g>
    <g>
        <line x1="268" y1="344" x2="460" y2="344" class="solid"></line>
        <line x1="268" y1="344" x2="268" y2="416" class="solid"></line>
        <line x1="460" y1="344" x2="460" y2="456" class="solid"></line>
        <line x1="268" y1="432" x2="268" y2="456" class="solid"></line>
        <line x1="268" y1="456" x2="460" y2="456" class="solid"></line>
    </g>
    <g>
        <line x1="284" y1="376" x2="444" y2="376" class="solid"></line>
        <line x1="284" y1="376" x2="284" y2="384" class="solid"></line>
        <line x1="444" y1="376" x2="444" y2="440" class="solid"></line>
        <line x1="284" y1="400" x2="284" y2="440" class="solid"></line>
        <line x1="284" y1="408" x2="444" y2="408" class="solid"></line>
        <line x1="284" y1="440" x2="444" y2="440" class="solid"></line>
        <polygon points="224,420 216,424 224,428" class="filled"></polygon>
        <line x1="224" y1="424" x2="284" y2="424" class="solid"></line>
    </g>
    <g>
        <line x1="240" y1="480" x2="248" y2="496" class="solid"></line>
        <line x1="244" y1="488" x2="484" y2="488" class="solid"></line>
        <line x1="488" y1="480" x2="480" y2="496" class="solid"></line>
    </g>
</svg>
