<svg xmlns="http://www.w3.org/2000/svg" width="768" height="240">
    <style>
@import url('https://cdn.jsdelivr.net/npm/hack-font@3.3.0/build/web/hack-subset.css');
* { font-family: Hack; font-size: 13px; }

        line, path, circle, rect, polygon{stroke:black;stroke-width:2;stroke-opacity:1;fill-opacity:1;stroke-linecap:round;stroke-linejoin:miter;}text{font-family:monospace;font-size:14px;}rect.backdrop{stroke:none;fill:white;}.broken{stroke-dasharray:8;}.filled{fill:black;}.bg_filled{fill:white;}.nofill{fill:white;}.end_marked_arrow{marker-end:url(#arrow);}.start_marked_arrow{marker-start:url(#arrow);}.end_marked_diamond{marker-end:url(#diamond);}.start_marked_diamond{marker-start:url(#diamond);}.end_marked_circle{marker-end:url(#circle);}.start_marked_circle{marker-start:url(#circle);}.end_marked_open_circle{marker-end:url(#open_circle);}.start_marked_open_circle{marker-start:url(#open_circle);}.end_marked_big_open_circle{marker-end:url(#big_open_circle);}.start_marked_big_open_circle{marker-start:url(#big_open_circle);}
        <!--separator-->
        
    </style>
    <defs>
        <marker id="arrow" viewBox="-2 -2 8 8" refX="4" refY="2" markerWidth="7" markerHeight="7" orient="auto-start-reverse">
            <polygon points="0,0 0,4 4,2 0,0"></polygon>
        </marker>
        <marker id="diamond" viewBox="-2 -2 8 8" refX="4" refY="2" markerWidth="7" markerHeight="7" orient="auto-start-reverse">
            <polygon points="0,2 2,0 4,2 2,4 0,2"></polygon>
        </marker>
        <marker id="circle" viewBox="0 0 8 8" refX="4" refY="4" markerWidth="7" markerHeight="7" orient="auto-start-reverse">
            <circle cx="4" cy="4" r="2" class="filled"></circle>
        </marker>
        <marker id="open_circle" viewBox="0 0 8 8" refX="4" refY="4" markerWidth="7" markerHeight="7" orient="auto-start-reverse">
            <circle cx="4" cy="4" r="2" class="bg_filled"></circle>
        </marker>
        <marker id="big_open_circle" viewBox="0 0 8 8" refX="4" refY="4" markerWidth="7" markerHeight="7" orient="auto-start-reverse">
            <circle cx="4" cy="4" r="3" class="bg_filled"></circle>
        </marker>
    </defs>
    <rect class="backdrop" x="0" y="0" width="768" height="240"></rect>
    <rect x="276" y="88" width="216" height="32" class="solid nofill" rx="0"></rect>
    <text x="306" y="108" >requestDurationNanos</text>
    <rect x="532" y="120" width="224" height="32" class="solid nofill" rx="0"></rect>
    <text x="562" y="140" >responseDurationNanos</text>
    <text x="330" y="44" >totalDurationNanos</text>
    <text x="58" y="76" >connectionAcquisition</text>
    <text x="218" y="188" >RequestHeaders</text>
    <text x="490" y="188" >frame</text>
    <text x="442" y="220" >ResponseHeaders</text>
    <text x="722" y="220" >chunk</text>
    <text x="154" y="188" >Sending</text>
    <text x="354" y="188" >Sending</text>
    <text x="418" y="188" >the</text>
    <text x="450" y="188" >last</text>
    <text x="370" y="220" >Received</text>
    <text x="578" y="220" >Received</text>
    <text x="650" y="220" >the</text>
    <text x="682" y="220" >last</text>
    <g>
        <line x1="28" y1="24" x2="756" y2="24" class="solid"></line>
        <line x1="28" y1="24" x2="28" y2="88" class="solid"></line>
        <line x1="756" y1="24" x2="756" y2="56" class="solid"></line>
        <line x1="28" y1="56" x2="756" y2="56" class="solid"></line>
        <line x1="252" y1="56" x2="252" y2="88" class="solid"></line>
        <line x1="28" y1="88" x2="252" y2="88" class="solid"></line>
    </g>
    <g>
        <polygon points="40,36 32,40 40,44" class="filled"></polygon>
        <line x1="40" y1="40" x2="328" y2="40" class="solid"></line>
    </g>
    <g>
        <line x1="472" y1="40" x2="744" y2="40" class="solid"></line>
        <polygon points="744,36 752,40 744,44" class="filled"></polygon>
    </g>
    <g>
        <polygon points="40,68 32,72 40,76" class="filled"></polygon>
        <line x1="40" y1="72" x2="56" y2="72" class="solid"></line>
    </g>
    <g>
        <line x1="224" y1="72" x2="240" y2="72" class="solid"></line>
        <polygon points="240,68 248,72 240,76" class="filled"></polygon>
    </g>
    <g>
        <polygon points="288,100 280,104 288,108" class="filled"></polygon>
        <line x1="288" y1="104" x2="304" y2="104" class="solid"></line>
    </g>
    <g>
        <line x1="464" y1="104" x2="480" y2="104" class="solid"></line>
        <polygon points="480,100 488,104 480,108" class="filled"></polygon>
    </g>
    <g>
        <polygon points="272,140 276,128 280,140" class="filled"></polygon>
        <line x1="276" y1="140" x2="276" y2="176" class="broken"></line>
    </g>
    <g>
        <polygon points="488,140 492,128 496,140" class="filled"></polygon>
        <line x1="492" y1="140" x2="492" y2="176" class="broken"></line>
    </g>
    <g>
        <polygon points="544,132 536,136 544,140" class="filled"></polygon>
        <line x1="544" y1="136" x2="560" y2="136" class="solid"></line>
    </g>
    <g>
        <line x1="728" y1="136" x2="744" y2="136" class="solid"></line>
        <polygon points="744,132 752,136 744,140" class="filled"></polygon>
    </g>
    <g>
        <polygon points="528,172 532,160 536,172" class="filled"></polygon>
        <line x1="532" y1="172" x2="532" y2="208" class="broken"></line>
    </g>
    <g>
        <polygon points="752,172 756,160 760,172" class="filled"></polygon>
        <line x1="756" y1="172" x2="756" y2="208" class="broken"></line>
    </g>
</svg>
