<svg xmlns="http://www.w3.org/2000/svg" width="592" height="160">
    <style>
@import url('https://cdn.jsdelivr.net/npm/hack-font@3.3.0/build/web/hack-subset.css');
* { font-family: Hack; font-size: 13px; }

        line, path, circle, rect, polygon{stroke:black;stroke-width:2;stroke-opacity:1;fill-opacity:1;stroke-linecap:round;stroke-linejoin:miter;}text{font-family:monospace;font-size:14px;}rect.backdrop{stroke:none;fill:white;}.broken{stroke-dasharray:8;}.filled{fill:black;}.bg_filled{fill:white;}.nofill{fill:white;}.end_marked_arrow{marker-end:url(#arrow);}.start_marked_arrow{marker-start:url(#arrow);}.end_marked_diamond{marker-end:url(#diamond);}.start_marked_diamond{marker-start:url(#diamond);}.end_marked_circle{marker-end:url(#circle);}.start_marked_circle{marker-start:url(#circle);}.end_marked_open_circle{marker-end:url(#open_circle);}.start_marked_open_circle{marker-start:url(#open_circle);}.end_marked_big_open_circle{marker-end:url(#big_open_circle);}.start_marked_big_open_circle{marker-start:url(#big_open_circle);}
        <!--separator-->
        
    </style>
    <defs>
        <marker id="arrow" viewBox="-2 -2 8 8" refX="4" refY="2" markerWidth="7" markerHeight="7" orient="auto-start-reverse">
            <polygon points="0,0 0,4 4,2 0,0"></polygon>
        </marker>
        <marker id="diamond" viewBox="-2 -2 8 8" refX="4" refY="2" markerWidth="7" markerHeight="7" orient="auto-start-reverse">
            <polygon points="0,2 2,0 4,2 2,4 0,2"></polygon>
        </marker>
        <marker id="circle" viewBox="0 0 8 8" refX="4" refY="4" markerWidth="7" markerHeight="7" orient="auto-start-reverse">
            <circle cx="4" cy="4" r="2" class="filled"></circle>
        </marker>
        <marker id="open_circle" viewBox="0 0 8 8" refX="4" refY="4" markerWidth="7" markerHeight="7" orient="auto-start-reverse">
            <circle cx="4" cy="4" r="2" class="bg_filled"></circle>
        </marker>
        <marker id="big_open_circle" viewBox="0 0 8 8" refX="4" refY="4" markerWidth="7" markerHeight="7" orient="auto-start-reverse">
            <circle cx="4" cy="4" r="3" class="bg_filled"></circle>
        </marker>
    </defs>
    <rect class="backdrop" x="0" y="0" width="592" height="160"></rect>
    <text x="2" y="12" >0ms</text>
    <text x="98" y="12" >3,000ms</text>
    <text x="194" y="12" >6,000ms</text>
    <text x="290" y="12" >9,000ms</text>
    <text x="386" y="12" >12,000ms</text>
    <line x1="292" y1="16" x2="292" y2="128" class="solid"></line>
    <text x="18" y="60" >Attempt</text>
    <text x="82" y="60" >1</text>
    <text x="210" y="60" >Attempt</text>
    <text x="274" y="60" >2</text>
    <text x="402" y="60" >Attempt</text>
    <text x="466" y="60" >3</text>
    <text x="482" y="60" >is</text>
    <text x="506" y="60" >not</text>
    <text x="538" y="60" >made</text>
    <text x="306" y="108" >10,000ms</text>
    <text x="258" y="140" >stops</text>
    <path d="M 384,96 A 16,16 0,0,0 384,112" class="nofill"></path>
    <text x="386" y="108" >retry</text>
    <text x="434" y="108" >session</text>
    <text x="498" y="108" >deadline</text>
    <path d="M 560,96 A 16,16 0,0,1 560,112" class="nofill"></path>
    <text x="306" y="140" >retrying</text>
    <text x="378" y="140" >at</text>
    <text x="402" y="140" >this</text>
    <text x="442" y="140" >point</text>
    <g>
        <line x1="4" y1="16" x2="4" y2="72" class="solid"></line>
        <line x1="4" y1="40" x2="580" y2="40" class="solid"></line>
        <line x1="580" y1="40" x2="580" y2="72" class="solid"></line>
        <line x1="388" y1="16" x2="388" y2="72" class="solid"></line>
        <line x1="4" y1="72" x2="580" y2="72" class="solid"></line>
        <line x1="332" y1="72" x2="332" y2="96" class="solid"></line>
        <line x1="100" y1="16" x2="100" y2="72" class="solid"></line>
        <line x1="196" y1="16" x2="196" y2="72" class="solid"></line>
    </g>
</svg>
